<svg width="58" height="58" viewBox="0 0 58 58" fill="none" xmlns="http://www.w3.org/2000/svg">
<path d="M9.54105 32.1852C9.3247 32.7758 8.88655 33.2589 8.31971 33.5316C7.75287 33.8044 7.10201 33.8454 6.50543 33.6459C5.90885 33.4464 5.41356 33.0222 5.12481 32.4633C4.83606 31.9044 4.77659 31.255 4.95905 30.653C4.91072 30.798 4.95905 30.6482 4.95905 30.6482C5.04524 30.3821 5.14526 30.1208 5.25872 29.8652C5.45205 29.406 5.73722 28.7728 6.12872 28.0237C6.92139 26.5253 8.16839 24.5292 9.99539 22.533C13.7026 18.4972 19.7587 14.5 29.0001 14.5C38.2462 14.5 44.3024 18.4972 47.9999 22.533C49.9739 24.6979 51.5746 27.1757 52.7366 29.8652C52.8332 30.0923 52.9057 30.276 52.9541 30.4113C52.9734 30.45 53.0217 30.7013 53.07 30.943C53.1135 31.1653 53.1522 31.378 53.1667 31.4167C53.1667 31.4167 53.5727 33.0262 51.5137 33.7077C50.9074 33.9102 50.2455 33.8641 49.6729 33.5797C49.1004 33.2953 48.6639 32.7956 48.459 32.19V32.1755L48.4252 32.0982C48.1824 31.4773 47.9049 30.8705 47.5939 30.2808C46.736 28.6596 45.6754 27.154 44.4377 25.8003C41.4894 22.5862 36.6706 19.3333 29.0001 19.3333C21.3296 19.3333 16.5107 22.5862 13.5624 25.8003C11.9661 27.5503 10.668 29.5506 9.71989 31.7212C9.66915 31.8459 9.62081 31.9716 9.57489 32.0982L9.54105 32.1852V32.1852Z" fill="white"/>
<path d="M29 24.1667C26.4362 24.1667 23.9775 25.1851 22.1646 26.998C20.3518 28.8108 19.3333 31.2696 19.3333 33.8333C19.3333 36.3971 20.3518 38.8559 22.1646 40.6687C23.9775 42.4816 26.4362 43.5 29 43.5C31.5638 43.5 34.0225 42.4816 35.8354 40.6687C37.6482 38.8559 38.6667 36.3971 38.6667 33.8333C38.6667 31.2696 37.6482 28.8108 35.8354 26.998C34.0225 25.1851 31.5638 24.1667 29 24.1667V24.1667ZM24.1667 33.8333C24.1667 32.5515 24.6759 31.3221 25.5823 30.4157C26.4887 29.5092 27.7181 29 29 29C30.2819 29 31.5113 29.5092 32.4177 30.4157C33.3241 31.3221 33.8333 32.5515 33.8333 33.8333C33.8333 35.1152 33.3241 36.3446 32.4177 37.251C31.5113 38.1574 30.2819 38.6667 29 38.6667C27.7181 38.6667 26.4887 38.1574 25.5823 37.251C24.6759 36.3446 24.1667 35.1152 24.1667 33.8333Z" fill="white"/>
</svg>
